HIERARCHY
ROOT Hips
{
	OFFSET -0.001795 -0.223333 0.028219
	CHANNELS 6 Xposition Yposition Zposition Zrotation Yrotation Xrotation 
	JOINT LeftUpLeg
	{
		OFFSET 0.069520 -0.091406 -0.006815
		CHANNELS 3 Zrotation Yrotation Xrotation
		JOINT LeftLeg
		{
			OFFSET 0.034277 -0.375199 -0.004496
			CHANNELS 3 Zrotation Yrotation Xrotation
			JOINT LeftFoot
			{
				OFFSET -0.013596 -0.397961 -0.043693
				CHANNELS 3 Zrotation Yrotation Xrotation
				JOINT LeftToe
				{
					OFFSET 0.026358 -0.055791 0.119288
					CHANNELS 3 Zrotation Yrotation Xrotation
					End Site
					{
						OFFSET 0.000000 0.000000 0.000000
					}
				}
			}
		}
	}
	JOINT RightUpLeg
	{
		OFFSET -0.067670 -0.090522 -0.004320
		CHANNELS 3 Zrotation Yrotation Xrotation
		JOINT RightLeg
		{
			OFFSET -0.038290 -0.382569 -0.008850
			CHANNELS 3 Zrotation Yrotation Xrotation
			JOINT RightFoot
			{
				OFFSET 0.015774 -0.398415 -0.042312
				CHANNELS 3 Zrotation Yrotation Xrotation
				JOINT RightToe
				{
					OFFSET -0.025372 -0.048144 0.123348
					CHANNELS 3 Zrotation Yrotation Xrotation
					End Site
					{
						OFFSET 0.000000 0.000000 0.000000
					}
				}
			}
		}
	}
	JOINT Spine
	{
		OFFSET -0.002533 0.108963 -0.026696
		CHANNELS 3 Zrotation Yrotation Xrotation
		JOINT Spine1
		{
			OFFSET 0.005487 0.135180 0.001092
			CHANNELS 3 Zrotation Yrotation Xrotation
			JOINT Spine2
			{
				OFFSET 0.001457 0.052922 0.025425
				CHANNELS 3 Zrotation Yrotation Xrotation
				JOINT Neck
				{
					OFFSET -0.002778 0.213870 -0.042857
					CHANNELS 3 Zrotation Yrotation Xrotation
					JOINT Head
					{
						OFFSET 0.005152 0.064970 0.051349
						CHANNELS 3 Zrotation Yrotation Xrotation
						End Site
						{
							OFFSET 0.000000 0.000000 0.000000
						}
					}
				}
				JOINT LeftShoulder
				{
					OFFSET 0.078845 0.121749 -0.034090
					CHANNELS 3 Zrotation Yrotation Xrotation
					JOINT LeftArm
					{
						OFFSET 0.090977 0.030469 -0.008868
						CHANNELS 3 Zrotation Yrotation Xrotation
						JOINT LeftForeArm
						{
							OFFSET 0.259612 -0.012772 -0.027456
							CHANNELS 3 Zrotation Yrotation Xrotation
							JOINT LeftHand
							{
								OFFSET 0.249234 0.008986 -0.001171
								CHANNELS 3 Zrotation Yrotation Xrotation
								End Site
								{
									OFFSET 0.000000 0.000000 0.000000
								}
							}
						}
					}
				}
				JOINT RightShoulder
				{
					OFFSET -0.081759 0.118833 -0.038615
					CHANNELS 3 Zrotation Yrotation Xrotation
					JOINT RightArm
					{
						OFFSET -0.096012 0.032551 -0.009143
						CHANNELS 3 Zrotation Yrotation Xrotation
						JOINT RightForeArm
						{
							OFFSET -0.253742 -0.013329 -0.021401
							CHANNELS 3 Zrotation Yrotation Xrotation
							JOINT RightHand
							{
								OFFSET -0.255298 0.007772 -0.005559
								CHANNELS 3 Zrotation Yrotation Xrotation
								End Site
								{
									OFFSET 0.000000 0.000000 0.000000
								}
							}
						}
					}
				}
			}
		}
	}
}
MOTION
Frames: 6
Frame Time: 0.050000
0.000000 0.942559 0.000000 -0.234170 -2.868102 7.549389 5.388870 -0.304261 -3.811735 1.908310 0.109995 -6.250795 9.329589 19.185388 18.342746 0.000000 0.000000 0.000000 -2.917087 0.509635 -5.014184 -2.066768 -0.153776 -6.277610 7.390856 8.663984 12.807446 0.000000 0.000000 0.000000 4.984384 0.290201 -5.237834 -2.396897 1.110004 -2.717767 -3.747715 3.880171 0.980851 4.753178 -2.695966 -6.555896 0.000000 0.000000 0.000000 -16.761098 1.682518 -3.220137 -53.924614 -6.717732 -2.961717 -7.383261 -13.665691 1.288727 0.000000 0.000000 0.000000 14.139157 -7.872167 -4.700138 62.425391 3.680316 -3.510468 7.620226 17.090972 1.620554 0.000000 0.000000 0.000000 
0.000198 0.942065 0.000666 -0.360235 -3.825662 8.290965 5.264772 -0.291219 -3.491121 2.195683 0.182096 -7.800087 9.821485 19.754262 19.032405 0.000000 0.000000 0.000000 -2.766489 0.615351 -6.279950 -2.279083 -0.112610 -5.660412 7.728398 9.303850 12.652886 0.000000 0.000000 0.000000 6.134520 0.325874 -5.503732 -3.246340 1.466805 -3.253825 -4.489021 4.640994 0.251952 4.663182 -2.641547 -6.306916 0.000000 0.000000 0.000000 -17.776006 2.462239 -3.893167 -52.998842 -6.564527 -2.868392 -7.781738 -13.118207 1.268352 0.000000 0.000000 0.000000 13.964458 -9.006599 -5.185672 63.442622 2.509391 -4.063407 8.304427 17.426151 1.755714 0.000000 0.000000 0.000000 
0.000347 0.941879 0.000923 0.049697 -3.358112 7.966026 4.859950 -0.305280 -3.705102 2.169598 0.137307 -6.999414 9.572805 19.470837 18.620921 0.000000 0.000000 0.000000 -3.031654 0.606521 -6.235591 -2.569886 -0.055395 -4.955626 7.331938 8.998860 12.031644 0.000000 0.000000 0.000000 5.969850 0.281048 -5.052712 -2.945554 1.327159 -4.177716 -5.389624 4.369598 0.375122 4.500097 -2.595250 -5.826236 0.000000 0.000000 0.000000 -17.236716 1.760094 -3.477334 -53.094902 -6.075140 -3.113076 -7.431402 -12.664794 1.185506 0.000000 0.000000 0.000000 14.959161 -8.249118 -4.926087 62.475968 2.363710 -4.134317 8.982764 17.875581 1.911415 0.000000 0.000000 0.000000 
0.000447 0.941687 0.001148 0.164812 -3.290146 8.187510 5.225537 -0.309105 -3.788541 1.300817 0.195624 -7.297162 9.532146 19.419780 18.572332 0.000000 0.000000 0.000000 -3.082883 0.636002 -6.611691 -2.724522 -0.029831 -4.673547 7.217938 8.925326 11.823140 0.000000 0.000000 0.000000 6.034477 0.259039 -4.871828 -3.350447 1.500832 -4.122486 -5.282848 3.859237 -0.937316 4.206510 -2.518661 -4.943709 0.000000 0.000000 0.000000 -16.999127 2.477993 -3.733895 -53.554850 -6.639677 -2.781701 -6.498011 -11.692621 1.003498 0.000000 0.000000 0.000000 13.965824 -8.519133 -5.005239 62.486929 1.982005 -4.186127 10.623196 18.302698 2.172841 0.000000 0.000000 0.000000 
0.000508 0.941808 0.001286 0.423418 -2.905330 8.176149 4.629854 -0.325274 -3.927694 1.905718 0.161390 -7.187112 9.291035 19.131115 18.545337 0.000000 0.000000 0.000000 -3.255755 0.632565 -6.611144 -2.885029 -0.010084 -4.528196 6.981444 8.620888 11.645339 0.000000 0.000000 0.000000 5.653610 0.264474 -4.994025 -2.980296 1.347543 -4.041755 -5.538515 3.569971 -0.928019 3.860495 -2.137722 -5.838228 0.000000 0.000000 0.000000 -17.126549 2.237791 -3.638219 -53.381560 -6.908540 -2.645944 -6.695790 -11.340773 0.992440 0.000000 0.000000 0.000000 13.654825 -8.422820 -4.910766 62.512372 2.154996 -4.086836 10.973039 18.307488 2.224574 0.000000 0.000000 0.000000 
0.000531 0.941952 0.001448 0.558667 -2.963326 8.356152 4.611517 -0.334820 -4.087815 1.662796 0.175487 -7.234118 9.308282 19.148566 18.641523 0.000000 0.000000 0.000000 -3.251818 0.639641 -6.686614 -3.179387 -0.008270 -4.757266 7.013683 8.624366 11.726406 0.000000 0.000000 0.000000 5.480018 0.272141 -5.121900 -3.001682 1.351606 -4.374100 -5.570908 3.658129 -0.947116 3.804231 -2.163084 -5.376556 0.000000 0.000000 0.000000 -17.045167 2.470471 -3.752074 -53.532027 -7.105222 -2.566965 -6.421990 -11.108584 0.945373 0.000000 0.000000 0.000000 13.210089 -8.215861 -4.735627 62.893093 2.141219 -4.097694 10.949201 18.448832 2.242249 0.000000 0.000000 0.000000 
